<svg version="1.0" xmlns="http://www.w3.org/2000/svg" width="202.667" height="202.667" viewBox="0 0 152 152"><path d="M24.5 1.7c-9.8 4-17 11-21.7 20.9l-2.9 6.1.3 47.9.3 47.9 2.8 5.7c3.9 7.9 10.4 14.3 18.5 18.1l6.7 3.2 45.5.3c40.2.2 46 .1 50.7-1.4 11.5-3.6 21.5-13.5 25.3-25 2-5.8 2-8.1 1.8-51.5l-.3-45.4-3.3-6.7c-4.1-8.5-12.9-16.8-20.7-19.7-5.4-2-7.3-2.1-52.3-2C34.6.1 28 .3 24.5 1.7zM113 75.5V113H38V38h75v37.5z"/><path d="M64 45.7C57.6 48 47.8 58 45.7 64.4c-5.2 15.3 1.4 31.8 15.8 39.4 4.3 2.3 6.2 2.7 14 2.7 8.1 0 9.5-.3 14.4-3 2.9-1.6 7-4.9 9.2-7.3 13.5-15.4 8.8-39.5-9.5-48.9-6.5-3.4-18.7-4.1-25.6-1.6z"/></svg>