<svg width="24" height="24" fill="none" xmlns="http://www.w3.org/2000/svg"><path d="M12.002 5.848A6.144 6.144 0 005.849 12a6.144 6.144 0 006.153 6.153A6.144 6.144 0 0018.155 12a6.144 6.144 0 00-6.153-6.153zm0 10.152a4.007 4.007 0 01-4-4 4.007 4.007 0 014-3.998A4.007 4.007 0 0116 12a4.007 4.007 0 01-4 4zm6.405-11.838c-.795 0-1.437.642-1.437 1.437s.642 1.437 1.437 1.437a1.433 1.433 0 001.328-1.988 1.436 1.436 0 00-1.328-.886zM23.996 12c0-1.656.015-3.297-.078-4.95-.093-1.92-.531-3.624-1.935-5.028C20.576.616 18.875.18 16.955.088 15.299-.005 13.658.01 12.005.01c-1.656 0-3.297-.015-4.95.078-1.92.093-3.624.53-5.028 1.935C.62 3.43.185 5.13.092 7.05-.001 8.707.014 10.348.014 12s-.015 3.297.078 4.95c.093 1.92.53 3.624 1.935 5.028 1.407 1.407 3.108 1.842 5.028 1.935 1.656.093 3.297.078 4.95.078 1.656 0 3.297.015 4.95-.078 1.92-.093 3.624-.531 5.028-1.935 1.407-1.407 1.842-3.108 1.935-5.028.096-1.653.078-3.294.078-4.95zm-2.64 7.074a3.812 3.812 0 01-.906 1.374 3.838 3.838 0 01-1.374.906c-1.578.627-5.325.486-7.074.486-1.75 0-5.5.14-7.077-.483a3.812 3.812 0 01-1.374-.906 3.838 3.838 0 01-.906-1.374c-.625-1.58-.483-5.327-.483-7.077s-.141-5.5.483-7.077c.219-.546.483-.954.906-1.374.423-.42.828-.687 1.374-.906 1.578-.624 5.328-.483 7.077-.483 1.749 0 5.499-.141 7.077.483.546.219.954.483 1.374.906.423.423.687.828.906 1.374.624 1.578.483 5.328.483 7.077 0 1.749.14 5.496-.486 7.074z" fill="#E61F5A"/></svg>