<svg width="73" height="60" fill="none" xmlns="http://www.w3.org/2000/svg"><g clip-path="url(#clip0)"><path fill-rule="evenodd" clip-rule="evenodd" d="M69.375 58S74 58 74 53.333c0-4.666-4.625-18.666-23.125-18.666s-23.125 14-23.125 18.666C27.75 58 32.375 58 32.375 58h37zm-36.898-4.667h36.796a.678.678 0 00.065-.009l.037-.01c-.01-1.231-.772-4.806-3.515-8.026-2.553-3.02-7.04-5.955-14.985-5.955-7.941 0-12.427 2.94-14.985 5.955-2.743 3.22-3.51 6.8-3.515 8.027l.102.018zm18.398-28a9.208 9.208 0 006.54-2.733 9.376 9.376 0 002.71-6.6c0-2.475-.975-4.85-2.71-6.6a9.208 9.208 0 00-6.54-2.733 9.208 9.208 0 00-6.54 2.733 9.376 9.376 0 00-2.71 6.6c0 2.475.975 4.85 2.71 6.6a9.208 9.208 0 006.54 2.733zM64.75 16a14.11 14.11 0 01-1.056 5.358 14.01 14.01 0 01-3.008 4.541 13.868 13.868 0 01-4.501 3.035 13.767 13.767 0 01-10.62 0 13.868 13.868 0 01-4.501-3.035 14.01 14.01 0 01-3.008-4.541A14.11 14.11 0 0137 16c0-3.713 1.462-7.274 4.064-9.9A13.812 13.812 0 0150.875 2c3.68 0 7.209 1.475 9.811 4.1A14.064 14.064 0 0164.75 16zM32.079 35.973a26.982 26.982 0 00-5.689-1.152 33.649 33.649 0 00-3.265-.154C4.625 34.667 0 48.667 0 53.333 0 56.446 1.54 58 4.625 58h19.499a10.523 10.523 0 01-.999-4.667c0-4.713 1.744-9.529 5.041-13.552a24.57 24.57 0 013.913-3.808zm-9.324 3.36c-7.714.094-12.094 2.987-14.615 5.955-2.761 3.239-3.515 6.827-3.515 8.045H18.5c0-4.876 1.494-9.734 4.255-14zm-15.817-21c0-3.713 1.461-7.274 4.063-9.9a13.812 13.812 0 019.812-4.1 13.81 13.81 0 019.81 4.1 14.064 14.064 0 014.064 9.9c0 3.713-1.461 7.274-4.063 9.9a13.813 13.813 0 01-9.811 4.1c-3.68 0-7.21-1.475-9.812-4.1a14.064 14.064 0 01-4.063-9.9zM20.813 9a9.208 9.208 0 00-6.541 2.734 9.376 9.376 0 00-2.71 6.6c0 2.475.975 4.849 2.71 6.599a9.208 9.208 0 006.54 2.734 9.208 9.208 0 006.541-2.734 9.376 9.376 0 002.71-6.6 9.378 9.378 0 00-2.71-6.6A9.208 9.208 0 0020.813 9z" fill="#23A6F0"/></g><defs><clipPath id="clip0"><path fill="#fff" transform="translate(.5)" d="M0 0h72v59.294H0z"/></clipPath></defs></svg>