<svg width="72" height="60" fill="none" xmlns="http://www.w3.org/2000/svg"><g clip-path="url(#clip0)"><path fill-rule="evenodd" clip-rule="evenodd" d="M0 9.429c0-2.236.896-4.38 2.49-5.96A8.537 8.537 0 018.5 1h57.375c.564 0 1.104.222 1.503.617a2.098 2.098 0 010 2.98 2.134 2.134 0 01-1.503.617H63.75v8.429a4.27 4.27 0 013.005 1.234A4.196 4.196 0 0168 17.857V53.68a6.294 6.294 0 01-1.867 4.47A6.402 6.402 0 0161.625 60h-51a10.67 10.67 0 01-7.513-3.086A10.491 10.491 0 010 49.464V9.43zm4.25 7.299v32.736c0 1.677.672 3.285 1.867 4.47a6.403 6.403 0 004.508 1.852h51c.564 0 1.104-.222 1.503-.617.398-.396.622-.932.622-1.49V17.857H8.5a8.512 8.512 0 01-4.25-1.13zm0-7.3c0 1.118.448 2.19 1.245 2.98A4.268 4.268 0 008.5 13.643h51V5.214h-51A4.268 4.268 0 005.495 6.45 4.196 4.196 0 004.25 9.43z" fill="#23A6F0"/></g><defs><clipPath id="clip0"><path fill="#fff" d="M0 0h72v59.294H0z"/></clipPath></defs></svg>