<svg width="72" height="60" fill="none" xmlns="http://www.w3.org/2000/svg"><g clip-path="url(#clip0)"><path d="M58.91 30.235h-6.546v9.883h-9.819v6.588H58.91v-16.47zm-39.274-9.882h9.819v-6.588H13.09v16.47h6.545v-9.882zM65.455.588H6.544c-1.736 0-3.4.695-4.628 1.93A6.61 6.61 0 000 7.177v46.117a6.61 6.61 0 001.917 4.659 6.524 6.524 0 004.628 1.93h58.91c1.736 0 3.4-.695 4.628-1.93A6.61 6.61 0 0072 53.294V7.177a6.61 6.61 0 00-1.917-4.659 6.524 6.524 0 00-4.629-1.93zm0 52.706H6.544V7.177h58.91v46.117z" fill="#23A6F0"/></g><defs><clipPath id="clip0"><path fill="#fff" transform="translate(0 .588)" d="M0 0h72v59.294H0z"/></clipPath></defs></svg>