<svg width="19" height="20" fill="none" xmlns="http://www.w3.org/2000/svg"><path d="M4.532 12.138l-1.367 5.918a.915.915 0 001.403.97l4.994-3.33 4.994 3.33a.919.919 0 001.392-1.015l-1.678-5.87 4.16-3.745a.917.917 0 00-.54-1.596l-5.23-.416-2.262-5.01a.916.916 0 00-1.672 0l-2.263 5.01-5.229.415a.917.917 0 00-.567 1.572l3.865 3.767zM7.149 8.17a.915.915 0 00.763-.538l1.65-3.651 1.65 3.651a.915.915 0 00.763.538l3.643.289-3 2.7a.919.919 0 00-.269.934l1.15 4.022-3.427-2.285a.912.912 0 00-1.017 0l-3.581 2.388.963-4.17a.917.917 0 00-.253-.862L3.397 8.469l3.752-.3z" fill="#F3CD03"/></svg>