<svg width="24" height="27" fill="none" xmlns="http://www.w3.org/2000/svg"><g clip-path="url(#clip0)"><path fill-rule="evenodd" clip-rule="evenodd" d="M-.919 6.592A3.345 3.345 0 01.223 4.727 3.2 3.2 0 012.25 4h19.5a3.2 3.2 0 012.026.727 3.345 3.345 0 011.143 1.865L12 14.69-.919 6.592zM-1 8.495v11.84l9.43-5.93L-1 8.495zm10.987 6.888L-.69 22.095a3.32 3.32 0 001.2 1.39A3.19 3.19 0 002.25 24h19.5c.616 0 1.218-.179 1.738-.517.52-.337.937-.82 1.2-1.39l-10.676-6.711L12 16.643l-2.013-1.261v.001zm5.583-.976L25 20.335V8.495l-9.43 5.91v.002z" fill="#fff"/></g><defs><clipPath id="clip0"><path fill="#fff" transform="translate(0 .875)" d="M0 0h24v26H0z"/></clipPath></defs></svg>