<svg width="72" height="60" viewBox="0 0 72 60" fill="none" xmlns="http://www.w3.org/2000/svg">
<g clip-path="url(#clip0)">
<path d="M58.9091 30.2355H52.3636V40.1179H42.5455V46.7061H58.9091V30.2355ZM19.6364 20.3531H29.4545V13.7649H13.0909V30.2355H19.6364V20.3531ZM65.4545 0.588379H6.54545C4.80949 0.588379 3.14463 1.2825 1.91712 2.51803C0.689609 3.75357 0 5.42931 0 7.17663V53.2944C0 55.0417 0.689609 56.7174 1.91712 57.9529C3.14463 59.1885 4.80949 59.8826 6.54545 59.8826H65.4545C67.1905 59.8826 68.8554 59.1885 70.0829 57.9529C71.3104 56.7174 72 55.0417 72 53.2944V7.17663C72 5.42931 71.3104 3.75357 70.0829 2.51803C68.8554 1.2825 67.1905 0.588379 65.4545 0.588379ZM65.4545 53.2944H6.54545V7.17663H65.4545V53.2944Z" fill="#23A6F0"/>
</g>
<defs>
<clipPath id="clip0">
<rect width="72" height="59.2942" fill="white" transform="translate(0 0.588379)"/>
</clipPath>
</defs>
</svg>
